PathFileType	4	(X/Y/Z)	C:/Users/beibeiliu/ov580/test_trc/User1\sequence.2_training_dense_right.trc
DataRate	CameraRate	NumFrames	NumMarkers	Units	OrigDataRate	OrigDataStartFrame	OrigNumFrames
120	120	25	19	mm	120	214	244
Frame#	Time	ThumbCMC			ThumbMCP			ThumbIP			ThumbTip			IndexMCP			IndexPIP			IndexTip			MiddleMCP			MiddlePIP			MiddleTip			RingMCP			RingPIP			RingTip			PinkyMCP			PinkyPIP			PinkyTip			BackHand1			BackHand2			BackHand3	
		X0	Y0	Z0	X1	Y1	Z1	X2	Y2	Z2	X3	Y3	Z3	X4	Y4	Z4	X5	Y5	Z5	X6	Y6	Z6	X7	Y7	Z7	X8	Y8	Z8	X9	Y9	Z9	X10	Y10	Z10	X11	Y11	Z11	X12	Y12	Z12	X13	Y13	Z13	X14	Y14	Z14	X15	Y15	Z15	X16	Y16	Z16	X17	Y17	Z17	X18	Y18	Z18	
213	1.775	170.986	53.5706	32.0225	171.707	78.0623	1.67685	170.471	86.9831	-25.5689	158.197	85.3964	-53.1246	202.754	20.1888	-36.8739	206.814	21.3664	-69.5626	190.788	45.3774	-92.103	187.481	-2.73579	-48.6018	189.293	4.53356	-84.2718	165.825	32.2806	-102.696	167.858	-10.8931	-51.3298	164.129	-2.64107	-82.0477	148.423	26.5309	-94.4054	137.153	-13.8929	-41.0546	135.202	-6.10321	-69.0751	134.364	20.084	-81.298	151.64	-11.8879	9.10834	140.656	-10.621	40.1921	174.004	11.4667	30.4439	
214	1.78333	166.859	61.8348	33.7471	161.276	80.6641	4.80348	163.708	93.2853	-25.2939	153.057	94.1627	-50.7765	206.156	30.849	-36.9532	207.592	31.2164	-68.7173	190.98	52.0071	-90.2091	196.427	7.95319	-47.2802	195.846	10.6624	-80.6874	175.645	37.4816	-101.432	177.087	-5.17588	-48.7803	174.138	2.39641	-82.3699	155.684	23.2765	-95.1887	145.537	-13.9522	-40.795	146.833	-3.49826	-68.3794	140.522	20.5784	-82.6077	159.242	-9.04497	5.70279	148.229	-10.7769	38.3237	174.748	17.3668	29.9551	
215	1.79167	161.061	66.8449	31.5906	152.962	85.3438	0.595879	151.807	95.4946	-23.4498	144.185	98.3301	-51.5963	205.961	42.7381	-38.3008	208.505	47.0106	-70.2726	187.032	61.6156	-89.927	203.51	21.5414	-47.7181	203.259	24.7256	-79.7297	175.22	43.6107	-101.368	183.338	0.95934	-47.7798	183.671	12.4162	-81.482	164.185	27.9936	-94.1418	158.27	-9.29264	-40.2431	156.449	-5.03498	-67.2067	148.62	17.217	-84.6801	167.435	-0.443727	8.68158	157.118	-3.93746	39.3511	181.815	28.3813	29.5127	
216	1.8	153.929	73.9363	31.4851	140.653	86.3516	1.03236	138.962	95.8412	-26.8941	131.771	98.9679	-53.6117	203.243	60.5897	-36.7446	204.37	62.4621	-69.2208	179.581	70.7438	-90.9417	203.957	36.2891	-44.0742	202.256	40.5516	-82.6828	176.209	55.9707	-100.154	193.58	15.7386	-47.407	191.293	20.7383	-78.6967	165.185	36.4182	-95.2536	167.771	-2.77095	-39.6988	166.853	5.48223	-67.0269	149.528	21.6163	-86.4686	177.717	9.19772	6.25071	167.339	0.374894	36.5127	179.292	36.4711	30.46	
217	1.80833	145.821	74.8678	31.24	129.324	88.0142	1.9895	125.773	98.3394	-27.0953	118.181	95.3436	-50.4152	198.004	76.5187	-36.901	198.213	78.9475	-70.5531	171.117	80.2448	-91.7627	204.845	48.5925	-49.1252	201.158	52.9597	-82.7574	167.586	59.7585	-101.641	197.947	28.4055	-47.9569	193.319	31.9875	-80.9884	167.383	41.9431	-95.9795	177.416	4.11703	-39.3805	175.935	9.87492	-66.5247	159.719	26.7072	-85.0112	180.515	16.6202	6.87726	176.461	8.83159	35.7226	180.537	47.39	27.8125	
218	1.81667	138.925	75.0042	31.3972	119.718	84.4245	0.738266	112.427	95.3821	-25.8793	103.953	93.9885	-50.7913	187.092	88.4984	-37.7007	186.67	91.6008	-71.2391	160.266	84.4937	-93.3239	199.944	66.4712	-48.2089	195.075	67.3954	-84.8877	161.245	65.1056	-102.824	198.473	42.8221	-49.8094	195.054	44.4385	-80.4776	165.611	45.9369	-95.8695	185.423	17.7889	-37.9257	184.998	18.6439	-66.076	158.86	33.6578	-84.0812	187.807	28.2873	8.84778	183.036	21.0679	38.5152	179.833	55.6798	26.5757	
219	1.825	131.861	71.7043	31.5247	108.593	80.7876	3.53731	101.134	89.0466	-24.1073	92.8488	84.7706	-49.1383	175.114	94.3129	-38.5018	173.678	98.4034	-73.3512	151.691	89.6751	-92.8776	193.179	79.2309	-51.1618	186.756	80.7283	-84.0957	155.819	71.326	-102.808	197.496	54.0882	-51.7985	188.819	58.9051	-82.2585	160.085	51.8176	-96.8134	191.152	30.5401	-41.9245	187.309	33.8304	-65.893	161.838	36.7656	-84.2403	189.616	38.6007	5.26291	186.118	31.0032	36.2979	172.297	64.8468	28.2694	
220	1.83333	124.628	72.0142	31.9587	103.795	74.0115	1.59639	90.6487	79.6025	-22.5886	86.0125	75.2024	-51.0112	160.961	105.729	-41.1194	157.657	108.027	-74.7981	136.346	93.9878	-94.3408	184.067	88.6278	-53.7858	172.398	91.4866	-88.0666	148.612	71.0403	-104.332	191.314	66.4304	-49.0768	183.901	67.0793	-84.7485	156.455	54.7731	-96.8186	191.203	40.803	-43.3389	186.069	41.2787	-73.1206	160.32	42.6254	-85.3499	190.683	48.2439	2.59141	186.889	39.1857	36.3753	168.361	72.7196	21.4743	
221	1.84167	120.247	68.1398	29.5937	95.6133	66.5881	4.66299	86.3116	69.5081	-20.2888	80.5196	65.4991	-50.2178	150.394	106.951	-42.4603	147.5	109.511	-72.6032	126.463	94.7194	-94.4192	173.012	94.5656	-52.8191	160.14	97.8497	-88.5638	140.51	73.9955	-105.879	185.799	74.1964	-51.3551	176.364	74.2756	-87.4542	152.752	59.061	-98.0429	194.943	46.9154	-44.8131	185.623	51.5781	-70.4704	163.046	42.1904	-88.5448	188.455	59.0588	4.17065	186.587	48.9026	35.2463	163.66	76.7953	24.2213	
222	1.85	117.631	63.0625	28.3791	96.0651	57.6571	5.93451	81.0947	61.5629	-23.0611	76.0645	53.4007	-47.1941	137.246	106.821	-43.1085	134.214	108.169	-75.3908	118.968	91.3563	-94.158	161.267	100.057	-51.9587	150.443	100.902	-88.6062	133.999	76.8514	-106.526	178.288	84.7146	-55.2095	170.462	81.5929	-86.3667	149.927	58.1287	-100.306	193.046	58.3789	-49.1384	182.523	58.2027	-74.4818	160.934	49.9352	-88.0884	187.246	66.1465	1.39113	187.198	57.3189	30.4969	155.216	80.3653	21.0876	
223	1.85833	118.401	56.3371	28.3458	92.8999	50.1046	2.4109	83.3927	47.3817	-19.0961	76.8338	40.9182	-51.4497	124.323	103.29	-41.3148	117.611	108.328	-72.3974	109.288	83.0012	-95.8065	149.192	103.577	-55.2655	141.091	99.8092	-89.9428	129.063	74.6861	-106.82	172.183	90.3155	-57.4068	160.675	86.3812	-87.7016	147.737	59.9019	-102.538	188.573	64.1833	-44.2813	179.119	63.9765	-75.3577	160.683	45.885	-90.992	179.909	74.565	1.29594	185.431	66.4562	30.7172	151	81.0845	23.9536	
224	1.86667	114.511	52.7638	30.4341	94.7662	41.7685	2.84057	83.1176	37.3062	-20.1387	76.9123	27.5581	-46.5844	115.752	98.2461	-43.0111	108.282	100.12	-73.1456	99.8303	76.3172	-96.5958	139.275	102.205	-54.2281	133.079	97.6184	-91.0086	122.001	70.899	-109.36	165.648	89.5184	-53.605	155.032	86.9609	-89.4731	142.388	60.1549	-102.785	184.475	70.2757	-48.6842	175.012	67.7732	-75.2735	160.004	50.4478	-91.5273	176.56	77.9941	-3.80918	182.87	68.7319	28.1314	147.748	80.915	22.0218	
225	1.875	112.99	48.284	28.7851	93.8205	31.6017	6.38115	82.4965	27.302	-20.3984	79.3346	16.2947	-45.6656	110.323	91.6643	-44.221	96.7876	91.8565	-74.9089	97.7001	68.5536	-97.4269	132.536	97.2254	-57.4789	121.582	93.1084	-90.0507	118.295	66.567	-110.796	157.991	90.6806	-59.3909	146.375	85.2926	-87.5517	144.797	58.7967	-105.692	177.725	73.1341	-50.8025	176.912	67.5725	-77.4516	157.608	46.1592	-94.5932	168.034	78.5259	-5.12127	181.418	72.6941	26.5644	141.522	79.6104	22.1797	
226	1.88333	116.131	43.1307	30.3093	92.7058	25.1022	2.84295	83.8386	17.3231	-18.964	80.5582	6.22104	-47.154	102.853	81.948	-43.2412	96.4042	82.1827	-77.2058	95.6486	60.728	-98.9343	129.986	92.3019	-61.8262	117.427	85.9131	-92.797	118.354	57.575	-113.527	151.44	87.5128	-61.0911	145.19	81.7769	-89.1429	140.806	55.4439	-105.341	177.634	70.8705	-48.6105	171.315	66.9116	-76.2919	158.856	48.0845	-95.3218	168.197	81.1491	-7.16603	174.749	74.1304	28.2428	136.844	75.9929	18.5679	
227	1.89167	115.195	40.812	29.3187	93.5185	18.4263	5.49467	87.3298	11.2474	-21.5728	86.0469	-0.402563	-42.2974	101.746	76.9363	-50.6845	91.8044	71.5064	-81.7126	93.0277	49.4823	-101.207	127.162	86.7164	-63.547	116.393	79.0026	-94.4377	118.236	51.4822	-115.614	148.692	83.3249	-62.3891	141.072	76.259	-91.9413	142.601	46.705	-109.248	175.16	69.8234	-51.7004	170.509	62.8701	-79.4159	162.137	41.6351	-96.0219	164.145	78.8606	-7.47964	171.998	76.0913	27.7969	137.3	75.2284	18.632	
228	1.9	107.46	36.7938	26.7913	92.9635	13.1989	7.84562	88.9417	4.46368	-20.6021	88.7173	-9.92314	-43.7156	99.9039	67.7801	-50.1151	90.3932	64.4447	-79.0639	88.1534	38.3705	-103.317	125.76	78.777	-62.1975	116.113	71.1359	-94.7376	114.637	43.1256	-117.68	146.162	77.201	-59.294	142.562	69.4796	-94.986	141.23	41.1098	-110.415	177.613	67.2226	-50.3889	172.178	63.5401	-76.1297	159.444	40.4574	-96.0852	159.977	77.3438	-5.1111	166.939	76.7495	26.229	127.828	73.0881	14.864	
229	1.90833	107.552	33.4144	29.0868	96.2868	8.02403	9.94948	89.3587	-4.80736	-16.8077	91.7316	-19.9276	-37.3642	95.5329	59.9185	-51.9443	88.1576	52.9553	-80.8253	92.0064	26.6666	-105.524	117.697	70.6286	-62.5258	113.816	60.8046	-99.3174	115.455	32.6901	-118.714	141.567	74.2444	-64.4087	139.61	64.0107	-95.9677	143.132	40.6988	-110.223	173.568	66.7014	-54.1917	167.344	57.4258	-78.3689	162.054	35.3722	-96.1958	157.192	76.3194	-10.8349	162.931	77.6954	27.0874	124.463	70.9723	15.0025	
230	1.91667	109.008	32.5444	26.2006	97.7352	3.78023	7.35997	93.0421	-11.3215	-14.1354	96.1845	-25.3857	-38.1104	92.153	51.1673	-51.7575	88.3657	42.3531	-79.5196	89.234	18.8802	-100.54	118.967	65.1807	-64.3459	110.647	52.1117	-98.0189	114.404	27.4384	-116.45	139.737	67.7035	-61.6067	139.344	57.2838	-95.8901	141.536	30.1279	-110.466	169.79	63.4198	-52.9196	169.763	55.0832	-78.3045	164.235	35.6099	-93.2414	155.925	74.5745	-6.88142	162.604	79.0098	26.1511	122.185	66.7137	15.6238	
231	1.925	104.783	29.0553	30.9939	95.2223	-0.41865	10.7794	90.4302	-16.6237	-9.36391	95.7931	-30.1919	-32.6873	88.7438	44.3194	-49.9918	82.627	30.8116	-80.4097	90.1729	9.364	-100.568	117.926	58.7279	-65.2333	110.924	43.6654	-97.0674	117.459	19.5958	-115.092	138.236	62.4586	-61.6413	136.589	52.9417	-91.7532	143.639	27.8782	-107.892	171.655	61.9728	-48.8918	170.133	51.7368	-76.9886	161.373	31.5926	-93.3788	151.086	72.8015	-6.89485	157.734	79.6206	23.1665	122.062	67.2035	13.2092	
232	1.93333	106.268	29.941	33.7751	98.2242	-1.01582	15.4581	91.4772	-19.3735	-9.1275	94.7516	-37.627	-27.962	87.9113	39.2448	-52.3245	84.005	24.363	-78.3196	89.4199	3.06989	-96.556	114.066	52.6525	-67.4298	109.896	38.1974	-93.5519	118.331	6.32985	-114.488	138.97	59.9338	-64.2433	134.577	43.6558	-93.5271	140.153	18.533	-106.687	165.79	58.8341	-49.4368	166.067	48.1268	-75.682	161.869	29.3238	-89.7888	148.76	71.9047	-10.217	156.43	79.9906	26.7998	115.166	64.4461	17.1169	
233	1.94167	102.666	28.8225	35.069	93.6614	-3.91085	18.8156	90.1952	-22.6877	-5.39391	92.673	-42.5674	-19.6049	86.5487	32.8707	-47.4106	81.5521	16.2608	-77.2551	89.0551	-4.32714	-91.5774	107.811	46.4691	-63.0576	106.564	28.9498	-91.2315	114.792	-2.48523	-109.683	135.346	54.4006	-61.8778	136.449	40.5156	-90.4972	142.722	11.8075	-104.835	164.929	54.7321	-45.9657	166.475	43.1935	-74.8767	164.577	23.8199	-89.8841	145.257	71.3973	-5.62985	148.158	80.0119	22.7351	115.247	64.573	15.3561	
234	1.95	100.534	28.8988	37.6883	93.0812	-3.54836	19.7969	88.892	-24.9858	-0.339506	93.5466	-41.9591	-16.5818	86.2225	28.5318	-50.9768	83.2615	11.0875	-74.5482	86.3074	-15.004	-88.6544	109.991	41.9402	-61.4988	106.247	23.016	-87.9466	115.813	-10.2378	-104.399	133.247	48.8342	-60.2584	135.307	33.3921	-88.2776	140.186	0.911464	-100.333	165.233	50.9877	-46.8679	162.513	38.9784	-69.0502	160.391	16.2629	-84.7523	141.243	69.9167	-7.68115	145.575	79.7792	22.9803	112.483	63.1059	14.2936	
235	1.95833	95.8365	30.5162	35.7265	89.2789	-2.03466	25.8691	84.7979	-25.0223	4.65075	87.6185	-45.3481	-8.20442	83.0256	24.2376	-45.6764	78.6759	5.66289	-70.4677	88.983	-14.7803	-85.1602	108.214	36.5982	-60.9272	107.332	13.4996	-87.4397	115.352	-14.5149	-98.3494	135.212	43.0679	-57.213	137.23	24.8087	-84.4992	141.937	-4.74071	-92.721	160.161	45.2708	-43.293	166.583	28.8441	-68.7143	163.187	6.99437	-79.1587	137.115	67.8398	-5.45764	143.728	80.005	22.9704	108.898	64.86	13.5069	
236	1.96667	92.1473	34.7312	38.2594	85.0646	2.09645	30.9399	82.0459	-20.4006	8.51418	83.6394	-41.9717	-5.81995	84.2484	25.3236	-44.8725	77.2329	5.00273	-65.9687	81.3286	-21.3181	-81.9526	108.718	32.3978	-58.9551	105.603	9.6047	-81.0956	115.964	-25.427	-93.2526	135.582	35.6442	-58.6123	137.346	15.1468	-80.3579	139.352	-14.1212	-84.1229	159.266	38.7476	-44.9663	161.499	21.2316	-62.1559	157.418	-6.77792	-72.7933	142.384	66.1104	-7.26879	144.864	79.8461	26.1827	109.132	65.3731	13.0138	
237	1.975	88.5453	39.6712	39.0405	78.0613	5.41882	32.6023	74.7347	-16.3114	14.2275	75.2902	-38.1674	2.55323	83.011	26.879	-42.8243	79.8614	6.77481	-63.9879	81.8333	-23.2364	-80.1895	107.736	27.8184	-59.8626	105.919	1.38423	-78.9101	110.822	-32.6681	-85.4516	133.487	28.312	-57.6785	132.561	4.80176	-73.6553	137.473	-24.7869	-74.5804	159.617	32.3208	-41.1428	163.108	11.3278	-59.3333	153.956	-15.0164	-63.2696	137.908	65.7513	-7.69949	143.31	80.7154	22.7816	108.474	70.2846	14.1889	
